<svg xmlns="http://www.w3.org/2000/svg" width="152" height="26" fill="none"><path fill="#fff" d="m12.52 18.226-.014 2.616H.078V.914h12.428v2.615H3.33v6.006h7.335v2.533H3.33v6.158h9.19ZM23.684 9.286a.74.74 0 0 1-.25.277.663.663 0 0 1-.345.083c-.157 0-.328-.046-.512-.138a13.725 13.725 0 0 0-.65-.332 5.148 5.148 0 0 0-.886-.319 4.046 4.046 0 0 0-1.177-.152c-.369 0-.706.046-1.01.138a2.175 2.175 0 0 0-.761.374c-.203.157-.36.346-.47.567-.111.213-.167.443-.167.692 0 .333.102.61.305.83.203.222.47.416.802.582.332.157.71.3 1.135.43.424.128.858.267 1.301.414.443.148.877.319 1.3.512a4.75 4.75 0 0 1 1.136.72c.332.277.6.618.802 1.024.203.397.305.881.305 1.453 0 .664-.12 1.278-.36 1.84a4.134 4.134 0 0 1-1.052 1.468c-.461.415-1.038.738-1.73.969-.682.23-1.467.345-2.352.345-.49 0-.964-.046-1.426-.138a8.412 8.412 0 0 1-1.3-.346 7.773 7.773 0 0 1-1.15-.553 6.203 6.203 0 0 1-.94-.692l.692-1.135a.852.852 0 0 1 .775-.443c.193 0 .382.064.567.194.194.12.415.253.664.4.259.149.568.287.928.416.36.12.807.18 1.342.18.443 0 .826-.05 1.149-.152.323-.11.59-.259.802-.443.212-.185.37-.392.47-.623.102-.24.153-.493.153-.761 0-.36-.102-.655-.305-.886a2.564 2.564 0 0 0-.816-.595 7.114 7.114 0 0 0-1.149-.443c-.424-.129-.858-.267-1.3-.415a14.343 14.343 0 0 1-1.315-.512 4.782 4.782 0 0 1-1.149-.733 3.534 3.534 0 0 1-.803-1.094c-.203-.433-.304-.96-.304-1.577 0-.563.11-1.098.332-1.606.23-.507.563-.955.996-1.342.443-.388.983-.692 1.62-.913.646-.231 1.388-.346 2.228-.346.95 0 1.813.152 2.588.456.775.305 1.425.72 1.951 1.246l-.664 1.08ZM31.863 21.063c-1.171 0-2.075-.327-2.712-.982-.628-.664-.941-1.596-.941-2.796v-8.22h-1.55a.642.642 0 0 1-.43-.152c-.12-.111-.18-.273-.18-.485V7.224l2.284-.332.65-4.082a.745.745 0 0 1 .236-.374.63.63 0 0 1 .443-.152h1.522V6.92h3.917v2.145h-3.917v8.013c0 .507.125.895.374 1.162.249.268.581.402.996.402.231 0 .43-.028.596-.084a3.87 3.87 0 0 0 .428-.193c.12-.074.222-.139.305-.194a.464.464 0 0 1 .263-.097c.166 0 .3.092.401.277l.886 1.453a4.92 4.92 0 0 1-1.633.941 6.007 6.007 0 0 1-1.938.318ZM43.442 6.505c1.043 0 1.984.17 2.823.512a5.987 5.987 0 0 1 2.16 1.453c.599.627 1.06 1.388 1.383 2.283.323.895.484 1.9.484 3.017s-.161 2.122-.484 3.017c-.323.895-.784 1.66-1.384 2.297a5.986 5.986 0 0 1-2.159 1.454c-.84.34-1.78.512-2.823.512-1.052 0-2.002-.171-2.85-.512a6.149 6.149 0 0 1-2.16-1.454c-.6-.636-1.06-1.402-1.384-2.297-.323-.895-.484-1.9-.484-3.017 0-1.116.161-2.122.484-3.017.323-.895.785-1.656 1.384-2.283a6.15 6.15 0 0 1 2.16-1.453c.848-.342 1.798-.512 2.85-.512Zm0 12.22c1.273 0 2.219-.425 2.837-1.274.627-.858.941-2.08.941-3.667 0-1.587-.313-2.81-.94-3.667-.62-.868-1.565-1.301-2.838-1.301-1.292 0-2.251.433-2.879 1.3-.627.859-.94 2.081-.94 3.668 0 1.587.313 2.81.94 3.667.628.85 1.587 1.274 2.88 1.274ZM62.16 10.2c-.414-.526-.871-.895-1.37-1.107a3.941 3.941 0 0 0-1.619-.333c-1.162 0-2.07.43-2.726 1.287-.655.85-.983 2.109-.983 3.778 0 .868.074 1.61.222 2.229.148.609.36 1.107.637 1.494.276.388.613.67 1.01.845.396.175.844.262 1.342.262.757 0 1.407-.161 1.951-.484.554-.332 1.066-.798 1.537-1.398V10.2Zm2.976-3.474v18.807h-2.975v-6.615a7.515 7.515 0 0 1-1.965 1.55c-.72.388-1.56.582-2.52.582-.793 0-1.512-.157-2.158-.47a4.715 4.715 0 0 1-1.66-1.399c-.462-.609-.822-1.36-1.08-2.256-.25-.904-.374-1.937-.374-3.1 0-1.051.138-2.025.415-2.92.286-.894.692-1.67 1.218-2.325a5.536 5.536 0 0 1 1.91-1.55c.756-.378 1.6-.567 2.532-.567.453 0 .863.042 1.232.125.378.073.724.189 1.038.346.323.147.618.332.886.553.267.212.521.457.76.734l.18-.928c.112-.378.365-.567.762-.567h1.8ZM80.676 6.726v14.116h-1.799c-.397 0-.65-.19-.761-.567l-.222-1.315c-.295.314-.608.6-.94.858-.323.258-.67.48-1.038.664a5.643 5.643 0 0 1-2.532.581c-.776 0-1.459-.129-2.05-.387a4.13 4.13 0 0 1-1.494-1.093 4.778 4.778 0 0 1-.9-1.689 7.456 7.456 0 0 1-.304-2.186V6.726h2.976v8.982c0 .95.216 1.688.65 2.214.443.526 1.112.789 2.007.789.655 0 1.264-.148 1.826-.443a6.285 6.285 0 0 0 1.606-1.246V6.726h2.975ZM93.548 12.193c0-.499-.074-.96-.222-1.384a3.09 3.09 0 0 0-.622-1.121 2.755 2.755 0 0 0-1.038-.748c-.406-.184-.877-.276-1.412-.276-1.08 0-1.928.309-2.546.927-.618.618-1.01 1.485-1.177 2.602h7.017Zm-7.1 1.826c.037.803.162 1.5.374 2.09.212.581.494 1.066.844 1.453.36.388.785.678 1.273.872a4.752 4.752 0 0 0 1.661.277c.582 0 1.084-.065 1.509-.194a8.125 8.125 0 0 0 1.107-.443c.314-.166.581-.314.803-.443.22-.138.424-.207.608-.207.24 0 .425.092.554.277l.844 1.093c-.35.415-.747.766-1.19 1.052a7.206 7.206 0 0 1-1.412.705 7.94 7.94 0 0 1-1.536.374 9.838 9.838 0 0 1-1.536.125 7.53 7.53 0 0 1-2.726-.485 6.207 6.207 0 0 1-2.173-1.453c-.609-.636-1.089-1.425-1.44-2.366-.34-.941-.511-2.025-.511-3.253 0-.978.152-1.891.456-2.74a6.686 6.686 0 0 1 1.329-2.214 6.247 6.247 0 0 1 2.103-1.48c.83-.37 1.767-.554 2.81-.554.867 0 1.67.143 2.408.429a5.203 5.203 0 0 1 1.91 1.231c.535.545.95 1.214 1.245 2.007.305.784.457 1.68.457 2.685 0 .461-.05.77-.152.927-.102.157-.286.235-.554.235h-9.065ZM124.042.914l-6.2 19.928h-2.92l-4.678-14.31c-.055-.157-.11-.327-.166-.512a19.873 19.873 0 0 1-.138-.595c-.046.212-.097.41-.152.595a5.75 5.75 0 0 1-.153.512l-4.719 14.31h-2.92L95.796.914h2.713c.276 0 .507.069.692.207.193.13.323.31.387.54l3.737 12.774c.074.276.143.576.207.899.065.323.129.66.194 1.01.065-.35.134-.687.208-1.01.083-.332.17-.632.263-.9l4.276-12.773c.064-.185.194-.355.387-.512.194-.157.425-.235.692-.235h.941c.286 0 .517.073.692.221.176.138.309.314.402.526l4.262 12.774c.092.267.175.558.249.871.083.305.157.628.222.97l.18-.97c.064-.313.133-.604.207-.871L120.43 1.66a.98.98 0 0 1 .374-.526c.203-.148.438-.221.705-.221h2.533ZM133.822 12.193c0-.499-.074-.96-.221-1.384a3.097 3.097 0 0 0-.623-1.121 2.758 2.758 0 0 0-1.038-.748c-.406-.184-.876-.276-1.412-.276-1.079 0-1.928.309-2.546.927-.618.618-1.01 1.485-1.176 2.602h7.016Zm-7.099 1.826c.037.803.161 1.5.373 2.09.213.581.494 1.066.845 1.453.359.388.784.678 1.273.872a4.75 4.75 0 0 0 1.66.277c.582 0 1.085-.065 1.509-.194a8.16 8.16 0 0 0 1.107-.443c.314-.166.581-.314.803-.443.221-.138.424-.207.609-.207.24 0 .424.092.553.277l.844 1.093c-.35.415-.747.766-1.19 1.052a7.212 7.212 0 0 1-1.411.705 7.97 7.97 0 0 1-1.536.374 9.841 9.841 0 0 1-1.537.125 7.53 7.53 0 0 1-2.726-.485 6.21 6.21 0 0 1-2.173-1.453c-.609-.636-1.088-1.425-1.439-2.366-.341-.941-.512-2.025-.512-3.253 0-.978.152-1.891.457-2.74a6.675 6.675 0 0 1 1.328-2.214 6.248 6.248 0 0 1 2.104-1.48c.83-.37 1.767-.554 2.809-.554.867 0 1.67.143 2.408.429a5.204 5.204 0 0 1 1.91 1.231c.535.545.95 1.214 1.245 2.007.305.784.457 1.68.457 2.685 0 .461-.051.77-.152.927-.102.157-.286.235-.554.235h-9.064ZM142.243 17.3c.416.534.868.913 1.357 1.134a4.088 4.088 0 0 0 1.619.318c1.172 0 2.085-.424 2.74-1.273.655-.849.983-2.163.983-3.944 0-1.624-.286-2.81-.858-3.557-.563-.747-1.371-1.12-2.422-1.12-.729 0-1.366.165-1.91.497-.535.323-1.038.79-1.509 1.398V17.3Zm0-8.706a7.13 7.13 0 0 1 1.952-1.522c.719-.378 1.54-.567 2.463-.567.821 0 1.559.161 2.214.484a4.57 4.57 0 0 1 1.689 1.37c.461.6.816 1.329 1.065 2.187.249.848.374 1.808.374 2.878 0 1.144-.143 2.187-.429 3.128-.277.932-.678 1.734-1.204 2.408a5.542 5.542 0 0 1-1.91 1.55c-.747.36-1.582.54-2.505.54-.452 0-.862-.047-1.231-.139a4.111 4.111 0 0 1-1.025-.373 4.693 4.693 0 0 1-.871-.596 6.772 6.772 0 0 1-.748-.788l-.124 1.093c-.046.212-.129.364-.249.457-.12.092-.286.138-.499.138h-1.937V.36h2.975v8.234Z"/></svg>